<svg xmlns="http://www.w3.org/2000/svg" viewBox="0 0 398.4 398.4"><path fill="#fff" d="M0 0h398.4v398.4H0z"></path><path d="M0 0v398.4h398.4V0H0zm271.7 142.5L222 163.6c-4.8 2-7.5 6.4-7.8 13.4v10.5l64.1-27.3v19.1c.1 6.2-2.2 9.6-6.2 10.9l-49.5 21.1c-5.6 1.6-8.4 6.2-8.3 13.6v10.5l64.1-27.3v13.3c0 25.2-39.8 42.4-76.4 62.4-1.6.8-3.5.8-5.2 0l-.1-.1v.1c-40.6-20.2-76.4-38.6-76.4-62.8V116.2c0-3 4-2.8 11.2 0l57.3 20.8c6.8 1.9 14.1 1.9 20.9 0l57.4-20.8c6.4-2.5 11.7-4 11.2 0v14.6c.1 6.2-2.3 9.8-6.6 11.7z" fill="#ec660c"></path></svg>